<svg xmlns="http://www.w3.org/2000/svg" viewBox="0 0 256 256" role="img" aria-labelledby="title desc">
  <title>Smart Monkey icon</title>
  <desc>Rounded monkey face badge with an S-shaped forehead mark for the Smart Monkey app favicon.</desc>
  <defs>
    <linearGradient id="bg" x1="0" y1="0" x2="1" y2="1">
      <stop offset="0%" stop-color="#0f4c81" />
      <stop offset="100%" stop-color="#1f7a8c" />
    </linearGradient>
    <linearGradient id="face" x1="0" y1="0" x2="0" y2="1">
      <stop offset="0%" stop-color="#f6d7b0" />
      <stop offset="100%" stop-color="#e8b980" />
    </linearGradient>
  </defs>
  <rect width="256" height="256" rx="56" fill="url(#bg)" />
  <circle cx="78" cy="88" r="34" fill="#7a4a2a" />
  <circle cx="178" cy="88" r="34" fill="#7a4a2a" />
  <circle cx="78" cy="88" r="18" fill="#f2d3ad" />
  <circle cx="178" cy="88" r="18" fill="#f2d3ad" />
  <path d="M128 54c42 0 76 31 76 76 0 47-34 86-76 86s-76-39-76-86c0-45 34-76 76-76Z" fill="#7a4a2a" />
  <path d="M128 78c28 0 52 20 52 50 0 34-24 62-52 62s-52-28-52-62c0-30 24-50 52-50Z" fill="url(#face)" />
  <path d="M112 70c8-10 24-14 40-10 10 3 18 9 22 17-10-5-19-7-28-5 6 4 10 9 12 15-10-5-21-6-33-2-10 3-18 9-24 18 1-13 5-24 11-33Z" fill="#f7f1e3" opacity="0.95" />
  <ellipse cx="104" cy="122" rx="10" ry="13" fill="#102a43" />
  <ellipse cx="152" cy="122" rx="10" ry="13" fill="#102a43" />
  <ellipse cx="128" cy="146" rx="24" ry="18" fill="#f7e7cf" />
  <path d="M118 145c0-6 4-10 10-10s10 4 10 10c0 5-4 8-10 8s-10-3-10-8Z" fill="#7a4a2a" />
  <path d="M108 164c7 9 15 13 20 13s13-4 20-13" fill="none" stroke="#7a4a2a" stroke-linecap="round" stroke-width="8" />
</svg>
